<svg version="1.1" id="Layer_1" xmlns="http://www.w3.org/2000/svg" xmlns:xlink="http://www.w3.org/1999/xlink" x="0px" y="0px"
	 width="100%" viewBox="0 0 1024 1024" enable-background="new 0 0 1024 1024" xml:space="preserve">

<path fill="#000000" opacity="1.000000" stroke="none" 
	d="
M599.661011,452.083008 
	C602.767456,458.173492 607.311401,460.895782 613.910889,460.808807 
	C629.568604,460.602448 645.230530,460.673187 660.890625,460.706268 
	C670.228088,460.726013 672.297974,462.874268 672.302917,472.211151 
	C672.307251,480.374451 672.360291,488.538269 672.287170,496.700928 
	C672.141724,512.948059 661.166626,525.135681 645.103394,527.372009 
	C632.650330,529.105591 620.162964,527.945801 607.695618,528.257568 
	C600.161743,528.445984 598.409119,530.112793 598.412781,537.789185 
	C598.417358,547.272461 598.613831,556.760620 598.375732,566.237854 
	C597.957214,582.896301 587.473999,594.776733 570.813477,597.234253 
	C556.748047,599.309021 542.549377,598.267822 528.420776,597.961182 
	C521.750122,597.816528 519.887207,594.668091 519.887085,586.502625 
	C519.886658,564.678772 519.887939,542.854919 519.893433,521.031067 
	C519.906189,470.385864 519.917236,419.740692 519.940063,369.095490 
	C519.944458,359.403076 522.157288,357.068146 532.034973,357.012909 
	C549.859924,356.913239 567.686462,356.925232 585.511353,357.042145 
	C595.610535,357.108368 598.133606,359.725800 598.170410,369.918884 
	C598.258972,394.408447 598.270081,418.898285 598.278625,443.388031 
	C598.279602,446.241882 598.442322,449.041382 599.661011,452.083008 
z"/>
<path fill="#000000" opacity="1.000000" stroke="none" 
	d="
M366.090515,561.388184 
	C343.550537,561.089783 325.334747,544.205811 323.639862,522.414734 
	C322.348633,505.813751 322.049347,489.169647 321.631439,472.532043 
	C321.432922,464.625885 321.355347,464.415131 313.499023,464.411896 
	C304.581848,464.408234 298.286438,459.606293 293.534912,452.914978 
	C284.402374,440.054016 284.337769,426.316711 292.243103,413.006592 
	C301.252960,397.836761 310.826172,382.986023 320.605103,368.296570 
	C324.199463,362.897217 325.535492,357.507965 325.810608,351.096924 
	C328.694366,283.897034 361.058380,236.026611 421.680542,207.477890 
	C438.363495,199.621399 456.455444,196.472107 475.027710,196.637955 
	C493.963684,196.807068 503.230652,205.807602 503.304504,224.926376 
	C503.440308,260.079620 503.371979,295.233643 503.372772,330.387360 
	C503.373749,373.371552 503.446350,416.355957 503.324738,459.339844 
	C503.206787,501.033691 477.430237,538.773376 438.545929,554.060242 
	C434.339661,555.713745 433.102417,557.859680 433.243042,562.125061 
	C433.539307,571.112061 433.384277,580.115906 433.317383,589.112183 
	C433.270325,595.444580 430.356506,598.548462 424.416351,598.852722 
	C418.325134,599.164673 414.930878,596.547974 414.566620,590.323608 
	C414.159637,583.368530 414.338379,576.373840 414.421539,569.398315 
	C414.453400,566.724243 414.591553,564.094849 413.453217,561.390869 
	C397.833344,561.390869 382.204895,561.390869 366.090515,561.388184 
M357.995575,297.444977 
	C349.904083,316.004242 345.580872,335.333832 346.385712,355.648132 
	C346.654297,362.426361 344.751465,368.335052 341.042358,373.973511 
	C332.986755,386.219421 325.158508,398.615875 317.321198,411.003876 
	C314.295349,415.786591 311.176880,420.554321 308.666473,425.609894 
	C304.352539,434.297424 310.369171,445.368805 320.890259,444.374817 
	C333.437927,443.189362 340.807098,451.275391 341.326355,464.783264 
	C341.997620,482.244843 342.649597,499.707275 343.372009,517.166748 
	C343.870239,529.208374 353.439301,540.291565 364.706421,540.487976 
	C380.501312,540.763245 396.333954,541.650085 412.121582,539.786621 
	C451.569702,535.130554 483.192963,504.142883 483.457733,460.445648 
	C483.931152,382.310150 483.263794,304.167664 483.049957,226.028183 
	C483.029083,218.400803 481.700439,217.104248 474.045349,216.941147 
	C458.646881,216.613037 443.929993,219.882080 429.878754,225.958221 
	C396.851898,240.239929 373.817352,264.724091 357.995575,297.444977 
z"/>
<path fill="#000000" opacity="1.000000" stroke="none" 
	d="
M519.914246,270.000000 
	C519.942078,248.838135 519.929626,228.176086 520.017090,207.514465 
	C520.053894,198.825058 522.310547,196.555176 531.086487,196.722397 
	C543.720520,196.963074 556.349548,196.104141 568.995850,197.581329 
	C591.219421,200.177231 608.197449,218.553940 608.313232,240.820358 
	C608.330566,244.152893 608.310303,247.485687 608.337463,250.818115 
	C608.387390,256.954437 609.383545,257.932068 615.695984,258.070496 
	C627.683777,258.333374 639.678406,257.623108 651.665527,258.609619 
	C666.769165,259.852661 680.094543,273.651398 680.297058,288.912384 
	C680.491577,303.573303 680.391663,318.238983 680.322388,332.902100 
	C680.294250,338.860382 677.783020,341.326691 671.713135,341.331696 
	C624.056824,341.370880 576.400513,341.375122 528.744202,341.341980 
	C522.288330,341.337494 519.965759,338.845306 519.947327,331.986023 
	C519.892273,311.490814 519.919373,290.995361 519.914246,270.000000 
z"/>
<path fill="#000000" opacity="1.000000" stroke="none" 
	d="
M708.270142,407.978027 
	C708.478027,413.479065 708.022339,418.438263 707.286316,423.383698 
	C705.395020,436.091034 696.979919,443.592834 683.217163,444.282074 
	C662.759216,445.306488 642.291687,445.355225 621.815979,444.495331 
	C617.076782,444.296295 614.762573,442.142761 614.148376,437.736908 
	C613.896790,435.931946 613.775879,434.094238 613.773682,432.271210 
	C613.748901,411.952057 613.741394,391.632874 613.784424,371.313782 
	C613.789307,368.997864 614.042847,366.671478 614.335266,364.369537 
	C614.866333,360.188721 617.208069,357.761841 621.494263,357.379944 
	C623.478333,357.203156 625.462646,356.893585 627.447754,356.885620 
	C644.102600,356.818787 660.757751,356.837189 677.412476,356.759277 
	C681.438232,356.740448 685.416138,357.239441 689.264221,358.191895 
	C701.584717,361.241425 707.998657,369.858368 708.233826,383.499268 
	C708.371643,391.491455 708.265625,399.487854 708.270142,407.978027 
z"/>
<path fill="#773131ff" opacity="1.000000" stroke="none" 
	d="
M173.666382,788.999878 
	C173.669205,780.834229 173.862289,773.162048 173.600189,765.505493 
	C173.455383,761.275391 174.663803,759.647278 179.184875,759.634644 
	C195.035339,759.590332 195.025513,759.437317 203.086563,773.076050 
	C209.522766,783.965637 215.985367,794.839722 222.853928,806.425171 
	C228.039917,799.489380 231.480392,792.142395 235.674484,785.288452 
	C240.107422,778.044250 244.382141,770.698425 248.533539,763.289185 
	C250.034698,760.610046 251.941376,759.538818 254.966324,759.684387 
	C258.956573,759.876343 262.976288,759.938110 266.958710,759.678162 
	C271.203766,759.401062 272.357269,761.263977 272.340271,765.255493 
	C272.224609,792.417969 272.282745,819.581238 272.283569,846.744202 
	C272.283600,847.244080 272.233093,847.746521 272.268341,848.243347 
	C272.477844,851.198730 271.172485,852.557373 268.160492,852.382812 
	C266.167755,852.267395 264.161926,852.399353 262.162750,852.369080 
	C251.814453,852.212280 252.710632,853.648193 252.687637,843.092285 
	C252.651321,826.432129 252.677979,809.771790 252.677979,791.645874 
	C248.765594,798.257141 245.513321,803.730896 242.282806,809.217346 
	C238.141693,816.250244 234.079193,823.330261 229.868088,830.320862 
	C226.328674,836.196289 219.598175,836.208801 216.094772,830.375610 
	C209.490768,819.379883 202.965775,808.336731 196.374695,797.333191 
	C195.733704,796.263062 195.487061,794.777161 193.792572,794.455688 
	C192.746185,796.310974 193.248413,798.328918 193.242599,800.245056 
	C193.195541,815.742798 193.091949,831.242249 193.293289,846.737488 
	C193.350067,851.107239 191.911423,852.480225 187.536530,852.459106 
	C173.669083,852.392090 173.670074,852.553406 173.670517,838.493652 
	C173.671051,822.162415 173.668060,805.831177 173.666382,788.999878 
z"/>
<path fill="#613636ff" opacity="1.000000" stroke="none" 
	d="
M301.350037,704.000122 
	C301.345123,713.332581 301.256561,722.166260 301.379028,730.996948 
	C301.423096,734.173889 300.315979,735.573669 297.043915,735.421082 
	C293.552246,735.258301 290.029633,735.186768 286.551422,735.463684 
	C282.789764,735.763245 282.010803,733.924194 282.132660,730.694885 
	C283.100800,705.042664 282.503601,679.381775 282.449677,653.724182 
	C282.424347,641.680664 282.378998,642.120789 294.294556,641.505554 
	C301.080170,641.155151 304.840790,643.463562 308.075104,649.325073 
	C314.426880,660.836487 321.588531,671.901428 328.437744,683.137329 
	C329.205353,684.396545 329.831970,685.807556 331.873230,686.868225 
	C337.328766,678.049438 342.808228,669.197205 348.281311,660.341003 
	C349.682404,658.073853 351.049683,655.785767 352.455780,653.521667 
	C360.695282,640.254089 360.899841,640.267334 376.763519,641.622742 
	C380.661102,641.955688 380.300171,644.330078 380.303436,646.814148 
	C380.323761,662.312622 380.323608,677.811157 380.321716,693.309631 
	C380.320221,705.641785 380.197937,717.975342 380.361603,730.305176 
	C380.413635,734.226685 379.000061,735.443298 375.122589,735.477051 
	C361.648041,735.594360 361.649048,735.723633 361.648926,722.150085 
	C361.648773,706.187195 361.648895,690.224304 361.648895,674.261353 
	C361.317963,674.180298 360.987061,674.099243 360.656128,674.018188 
	C353.316772,686.422913 345.978363,698.828125 338.637146,711.231812 
	C337.186310,713.683167 335.858368,716.067261 332.355713,716.177429 
	C328.899933,716.286072 326.482361,715.561096 324.564697,712.244080 
	C317.257568,699.604736 309.639282,687.145203 301.349792,673.303711 
	C301.349792,684.335693 301.349792,693.917908 301.350037,704.000122 
z"/>
<path fill="#a76161ff" opacity="1.000000" stroke="none" 
	d="
M566.305847,691.000000 
	C566.305969,704.491760 566.208252,717.484802 566.367126,730.474609 
	C566.413269,734.253174 565.361877,735.256104 561.334045,735.651550 
	C552.016724,736.566162 546.110413,733.408997 540.938965,725.333130 
	C531.613159,710.769714 520.961670,697.054993 510.856018,682.991394 
	C509.703949,681.388123 508.501740,679.820801 507.046844,677.866150 
	C504.958282,680.078857 505.380035,682.450134 505.373810,684.624756 
	C505.330566,699.781738 505.226135,714.940491 505.423431,730.094971 
	C505.477661,734.262268 504.072357,735.806030 499.967773,735.468018 
	C496.824127,735.209167 493.636627,735.284668 490.479675,735.438538 
	C486.977386,735.609192 485.777649,733.959717 485.783905,730.646912 
	C485.837036,702.498718 485.838684,674.350342 485.806702,646.202026 
	C485.803253,643.156250 486.822784,641.388977 490.149323,641.688599 
	C490.314270,641.703430 490.486664,641.709229 490.648102,641.679077 
	C500.109039,639.913025 506.133209,643.735352 511.447845,651.831360 
	C521.304688,666.846619 532.397217,681.050964 542.985596,695.585266 
	C543.657654,696.507751 544.196594,697.605774 545.718689,697.967834 
	C547.286011,696.622742 546.632263,694.688538 546.638794,693.028198 
	C546.699341,677.704712 546.790894,662.379700 546.612000,647.058167 
	C546.564392,642.984375 547.817322,641.599182 551.995056,641.588257 
	C566.268616,641.551086 566.277100,641.403076 566.296204,655.521729 
	C566.311951,667.181152 566.303528,678.840576 566.305847,691.000000 
z"/>
<path fill="#9c6363ff" opacity="1.000000" stroke="none" 
	d="
M295.430786,779.541443 
	C306.247040,763.870911 321.561462,757.462524 339.499176,758.209961 
	C358.307068,758.993652 373.237823,767.594360 380.918579,785.439148 
	C392.790344,813.020935 381.184052,848.676636 344.067169,853.979553 
	C324.974335,856.707275 307.512939,851.555969 296.360474,834.567383 
	C284.795654,816.950562 284.872742,798.311768 295.430786,779.541443 
M327.607361,834.980469 
	C334.543671,837.070618 341.429718,836.955383 348.022461,833.891968 
	C361.067963,827.830200 365.400696,816.967529 364.780548,803.266846 
	C364.112335,788.505432 352.665375,776.877930 337.918488,776.359863 
	C323.244263,775.844299 312.292236,784.667175 308.816040,799.804443 
	C305.423004,814.579529 312.701538,828.656372 327.607361,834.980469 
z"/>
<path fill="#8d4747ff" opacity="1.000000" stroke="none" 
	d="
M483.345032,802.185852 
	C483.464142,808.816162 483.439178,814.946777 481.882965,820.982117 
	C477.444397,838.195557 465.897827,847.891602 448.952454,851.117432 
	C434.645508,853.840881 420.069000,851.946655 405.618530,852.354065 
	C402.168976,852.451294 402.095673,849.939392 402.083801,847.558716 
	C402.044861,839.735107 402.097351,831.911255 402.092316,824.087463 
	C402.080078,804.959717 402.040009,785.831970 402.043549,766.704224 
	C402.044830,759.733521 402.091064,759.570374 408.931702,759.751343 
	C420.726593,760.063354 432.525879,759.027039 444.325714,760.535400 
	C467.794891,763.535461 481.862854,778.197998 483.345032,802.185852 
M430.486755,834.642334 
	C434.626465,834.276245 438.812836,834.185059 442.897095,833.492065 
	C454.681335,831.492554 461.071625,824.288574 462.864532,812.427429 
	C463.554718,807.861694 463.280212,803.503479 462.675018,799.062927 
	C461.423370,789.878967 456.731445,783.427795 447.872101,780.089355 
	C441.587280,777.721069 435.077820,778.242432 428.614807,778.156372 
	C421.947876,778.067688 421.697693,778.551147 421.757294,785.248474 
	C421.880310,799.072693 421.945862,812.898743 421.866943,826.723083 
	C421.821838,834.623657 421.672943,834.622803 430.486755,834.642334 
z"/>
<path fill="#8d6868ff" opacity="1.000000" stroke="none" 
	d="
	M812.091797,832.838623 
	C811.147949,831.230713 810.140015,830.025574 809.668091,828.638184 
	C807.359009,821.850098 802.377686,820.591187 795.924927,821.177795 
	C792.486816,821.490295 791.253601,822.600037 791.325256,826.000671 
	C791.479553,833.322388 791.265076,840.651550 791.394714,847.974243 
	C791.450562,851.128479 790.378601,852.493835 787.089111,852.411499 
	C768.057983,851.934998 771.953491,855.248108 771.758911,838.037170 
	C771.487915,814.066711 771.819885,790.089661 771.575806,766.118591 
	C771.523804,761.014099 773.139099,759.377075 778.139343,759.646301 
	C790.582336,760.316162 803.091309,758.727783 815.510986,760.618652 
	C829.498718,762.748291 838.345703,770.545654 841.377258,783.402710 
	C844.590637,797.030273 840.406494,808.438965 828.956970,816.450073 
	C826.269531,818.330444 826.050842,819.975037 827.691101,822.604797 
	C832.622620,830.511230 837.435791,838.492065 842.221985,846.487732 
	C843.128296,848.001831 844.529907,849.386719 844.161377,852.190735 
	C837.699402,852.190735 831.149902,852.252075 824.602966,852.149719 
	C822.855164,852.122375 822.317383,850.363281 821.578430,849.114502 
	C818.443054,843.815674 815.370422,838.479736 812.091797,832.838623 
M791.352478,788.541748 
	C791.357483,792.361206 791.361877,796.180664 791.367859,800.000122 
	C791.370667,801.806152 791.756287,803.532532 793.945618,803.525085 
	C800.556885,803.502686 807.252136,804.545166 813.739441,802.548157 
	C819.418030,800.800110 822.414124,795.122192 821.611450,788.096436 
	C820.942749,782.243042 817.171570,778.636353 811.038330,778.247559 
	C807.563171,778.027344 804.066284,778.002014 800.583435,778.079529 
	C790.455261,778.304749 791.482727,776.655212 791.352478,788.541748 
z"/>
<path fill="#ac4343ff" opacity="1.000000" stroke="none" 
	d="
M687.542419,798.670410 
	C691.995972,786.944885 696.432190,775.626831 700.584961,764.205627 
	C701.803955,760.853271 703.582703,759.398010 707.172302,759.677979 
	C712.632141,760.103821 718.992004,757.841553 723.355408,760.632996 
	C727.571289,763.330078 727.881531,769.960388 729.764648,774.898132 
	C738.956665,798.999878 747.962524,823.172607 757.003662,847.331665 
	C757.510071,848.684875 758.451050,850.031006 757.365601,852.293213 
	C751.924194,852.293213 746.144409,852.306702 740.364807,852.286621 
	C738.051880,852.278564 737.499146,850.458862 736.713257,848.764954 
	C734.567688,844.140076 734.848145,837.592468 730.327942,835.112854 
	C726.017456,832.748413 720.208862,834.502441 715.061218,834.404785 
	C709.563477,834.300415 704.055237,834.559448 698.564697,834.336731 
	C695.319397,834.205017 693.531860,835.471741 692.769897,838.492737 
	C692.729675,838.652161 692.640381,838.799255 692.573547,838.951965 
	C690.661011,843.318665 690.751831,850.173401 686.664490,851.581360 
	C681.198059,853.464294 674.594971,852.047241 667.334229,852.047241 
	C674.170105,834.003784 680.793518,816.521118 687.542419,798.670410 
M708.499146,795.879578 
	C706.369263,802.603394 703.054688,808.950439 701.473206,816.108887 
	C709.420837,816.108887 716.742065,816.108887 724.824158,816.108887 
	C720.914490,805.292542 717.267944,795.204041 713.159546,783.837830 
	C711.381653,788.476440 710.098755,791.823608 708.499146,795.879578 
z"/>
<path fill="#885b5bff" opacity="1.000000" stroke="none" 
	d="
M538.953979,836.021179 
	C552.124756,835.048828 557.635559,829.309143 557.707886,816.556641 
	C557.804199,799.568665 557.858154,782.577820 557.623535,765.592407 
	C557.559204,760.936523 559.176453,759.603088 563.682739,759.625366 
	C577.273621,759.692505 577.267517,759.532471 577.262939,772.965942 
	C577.257874,787.622803 577.302795,802.279846 577.262390,816.936584 
	C577.199158,839.857727 562.748474,854.143616 539.747803,854.411133 
	C526.416992,854.566162 514.660950,851.262207 506.254303,840.189392 
	C501.911560,834.469299 499.784424,827.765747 499.728577,820.618042 
	C499.584106,802.131531 499.761658,783.642334 499.596375,765.156128 
	C499.559692,761.055237 500.930634,759.685059 505.046783,759.648132 
	C519.329041,759.519836 519.343323,759.388794 519.359497,773.680969 
	C519.375488,787.838135 519.277344,801.995789 519.376038,816.152222 
	C519.461670,828.436462 526.120117,836.495789 538.953979,836.021179 
z"/>
<path fill="#d46666ff" opacity="1.000000" stroke="none" 
	d="
M737.189514,651.944214 
	C737.088257,659.363525 737.088257,659.374878 730.331970,659.382141 
	C721.175049,659.391968 712.018127,659.380920 702.861206,659.381470 
	C694.338074,659.382019 694.337036,659.383484 694.336609,668.143555 
	C694.336487,670.141418 694.495972,672.152649 694.318726,674.134216 
	C694.003845,677.654358 695.547363,678.811707 698.962891,678.756226 
	C707.950867,678.610168 716.947388,678.882751 725.931274,678.643066 
	C730.074097,678.532532 731.461060,679.973938 731.365417,684.088379 
	C731.023926,698.777527 733.021912,696.073242 719.302734,696.317505 
	C712.645264,696.436096 705.981628,696.441711 699.325256,696.295105 
	C695.776123,696.216980 694.075134,697.400574 694.295837,701.192993 
	C694.517944,705.009155 694.533936,708.861511 694.282349,712.674438 
	C694.013367,716.750305 695.867126,717.807983 699.621826,717.751953 
	C710.441223,717.590515 721.266663,717.824036 732.085327,717.640808 
	C736.042969,717.573730 737.331421,719.069519 737.245728,722.917175 
	C736.915161,737.762756 738.885376,735.246643 724.839905,735.369873 
	C709.856995,735.501343 694.872070,735.415710 679.888062,735.424561 
	C678.423950,735.425415 676.959839,735.424622 675.821716,735.424622 
	C674.257568,733.538391 674.693420,731.804871 674.691650,730.201050 
	C674.661194,702.730286 674.772522,675.258728 674.569946,647.789490 
	C674.534790,643.020752 675.873352,641.488159 680.729858,641.569885 
	C697.041199,641.844482 713.360046,641.664978 729.676025,641.672485 
	C737.232056,641.675964 737.231995,641.689819 737.195984,649.465393 
	C737.192932,650.131409 737.191895,650.797363 737.189514,651.944214 
z"/>
<path fill="#a54848ff" opacity="1.000000" stroke="none" 
	d="
M431.173706,659.370667 
	C423.359436,659.378845 423.359436,659.378845 423.349091,666.835327 
	C423.332611,678.720276 423.332611,678.717651 435.175690,678.717468 
	C442.174866,678.717346 449.174927,678.795105 456.172760,678.699768 
	C459.103760,678.659912 460.213501,679.749634 460.381195,682.775513 
	C461.132446,696.332520 461.218109,696.330078 447.700012,696.337708 
	C441.367401,696.341248 435.027100,696.522522 428.704834,696.265259 
	C424.492249,696.093750 423.021179,697.751343 423.299561,701.828735 
	C423.548737,705.477966 423.536743,709.169617 423.299957,712.820496 
	C423.060608,716.510742 424.429688,717.813660 428.161591,717.750854 
	C438.990540,717.568481 449.827301,717.831482 460.655457,717.627319 
	C464.746490,717.550232 466.306549,718.923462 466.209198,723.070557 
	C465.864136,737.769226 467.779510,735.243469 454.130554,735.366455 
	C437.646729,735.515015 421.160583,735.401672 404.949554,735.401672 
	C403.150085,733.573303 403.694733,731.637695 403.692139,729.882935 
	C403.652100,702.552795 403.756592,675.221863 403.567810,647.892944 
	C403.535675,643.238647 404.677185,641.490051 409.646729,641.571655 
	C426.640167,641.851013 443.642151,641.776672 460.638397,641.599060 
	C464.741272,641.556213 466.265961,642.905212 466.201477,647.032959 
	C465.967163,662.036743 467.529694,659.079712 454.145752,659.349976 
	C446.649628,659.501404 439.147888,659.373718 431.173706,659.370667 
z"/>
<path fill="#ce7474ff" opacity="1.000000" stroke="none" 
	d="
M634.667908,659.436157 
	C630.675354,660.227661 631.380981,663.109192 631.376282,665.485840 
	C631.333679,686.984558 631.351257,708.483459 631.351196,729.982300 
	C631.351196,731.612976 631.351196,733.243713 631.351196,735.341492 
	C625.486328,735.341492 620.041687,735.358826 614.597168,735.334595 
	C611.665588,735.321533 611.681213,733.164429 611.675354,731.117737 
	C611.651794,722.951538 611.654053,714.785339 611.651733,706.619141 
	C611.647827,692.953247 611.522095,679.285522 611.716492,665.622375 
	C611.781555,661.045227 609.959961,659.266846 605.540710,659.358765 
	C599.710510,659.480042 593.874268,659.295349 588.042969,659.388123 
	C585.074585,659.435242 583.803345,658.176025 583.820862,655.236267 
	C583.919006,638.757019 581.821899,641.869263 596.026550,641.728149 
	C615.190247,641.537781 634.358276,641.778381 653.522156,641.594360 
	C657.818115,641.553162 659.469421,642.815125 659.332947,647.266174 
	C658.895081,661.539978 661.105896,659.123779 647.597412,659.367920 
	C643.432251,659.443237 639.264832,659.394653 634.667908,659.436157 
z"/>
<path fill="#c97474ff" opacity="1.000000" stroke="none" 
	d="
M618.277222,816.998291 
	C618.270752,821.494080 618.452026,825.501892 618.206055,829.483337 
	C617.967041,833.353333 619.345520,834.806091 623.328247,834.716797 
	C633.147522,834.496643 642.981873,834.857239 652.796143,834.545654 
	C657.293579,834.402893 658.460449,835.987976 658.428284,840.280762 
	C658.337708,852.368958 658.509338,852.369324 646.274231,852.369690 
	C632.620300,852.370056 618.966370,852.381836 605.312439,852.369934 
	C598.037537,852.363586 597.974304,852.266418 598.023804,844.751892 
	C598.108215,831.947632 598.234131,819.143311 598.233215,806.338989 
	C598.232239,792.862244 598.251892,779.382141 597.949341,765.910583 
	C597.842346,761.144775 599.404846,759.557434 604.245178,759.623474 
	C618.249451,759.814636 618.252075,759.626343 618.258362,773.538757 
	C618.264893,787.858765 618.271362,802.178833 618.277222,816.998291 
z"/>
</svg>