<?xml version="1.0" encoding="UTF-8"?>
<svg id="Capa_1" xmlns="http://www.w3.org/2000/svg" version="1.1" viewBox="0 0 1080 1080">
  <!-- Generator: Adobe Illustrator 29.0.1, SVG Export Plug-In . SVG Version: 2.1.0 Build 192)  -->
  <defs>
    <style>
      .st0, .st1 {
        fill: #fff;
      }

      .st1 {
        opacity: .4;
      }
    </style>
  </defs>
  <path id="MT" class="st1" d="M186.45,297.82C255.55,222.93,434.59,20.93,503.7,109.45c69.1,88.51,201.03-9.08,246.58,34.04,45.55,43.12,143.28,145.25,143.28,145.25-17.63,18.89-148.36-2.72-171.34-8.62-22.98-5.9-188.68-39.48-253.53-18.82-64.85,20.66-207.85,7.98-230.55,20.87-27.57,15.65-51.69,15.65-51.69,15.65Z"/>
  <g id="Main">
    <g>
      <rect class="st0" x="502.5" y="436.23" width="75" height="75" transform="translate(-176.82 520.59) rotate(-45)"/>
      <polygon class="st0" points="292.51 526.77 292.51 526.77 540 279.28 787.49 526.77 893.55 526.77 540 173.21 186.45 526.77 186.45 526.77 292.51 526.77"/>
    </g>
  </g>
  <g id="Trees">
    <g>
      <path class="st0" d="M747.52,256.58c5.85-5.66,16.08-13.48,16.08-13.48,0,0-3.38,20.45-17.87,51.23-2.28,4.85-4.48,9.28-6.58,13.32l152.93,152.93c.34.1,1.9-1.42,1.9-1.42,0,0-28.54-32.49-44.43-60.09-15.88-27.6-24.6-55-24.6-55,0,0,9.73,8.64,18.07,13.01,8.34,4.37,26.26,12.66,26.26,12.66,0,0-32.75-41-40.75-66.86-8-25.87-17.57-56.79-17.57-56.79,0,0,8.85,8.97,12.71,15.8,3.87,6.83,11.01,13.68,11.01,13.68,0,0-10.87-52.16-23.42-102.35-10.91-43.62-23.54-86.24-25.96-85.78-2.55.49-17.29,47.91-29.24,92.33-12.45,46.29-23.23,93.12-23.23,93.12,0,0,8.85-10.65,14.69-16.31Z"/>
      <path class="st0" d="M332.48,256.58c-5.85-5.66-16.08-13.48-16.08-13.48,0,0,3.38,20.45,17.87,51.23,2.28,4.85,4.48,9.28,6.58,13.32l-152.93,152.93c-.34.1-1.9-1.42-1.9-1.42,0,0,28.54-32.49,44.43-60.09,15.88-27.6,24.6-55,24.6-55,0,0-9.73,8.64-18.07,13.01-8.34,4.37-26.26,12.66-26.26,12.66,0,0,32.75-41,40.75-66.86,8-25.87,17.57-56.79,17.57-56.79,0,0-8.85,8.97-12.71,15.8-3.87,6.83-11.01,13.68-11.01,13.68,0,0,10.87-52.16,23.42-102.35,10.91-43.62,23.54-86.24,25.96-85.78,2.55.49,17.29,47.91,29.24,92.33,12.45,46.29,23.23,93.12,23.23,93.12,0,0-8.85-10.65-14.69-16.31Z"/>
    </g>
  </g>
  <g id="Tuniche">
    <path class="st0" d="M257.18,887.51h55.1v4.98h-25.21v99.93h-4.83v-99.93h-25.06v-4.98Z"/>
    <path class="st0" d="M351.04,887.51h4.82v79.23c0,9.34,2.34,14.48,5.45,17.44,3.11,2.96,7.01,3.42,10.58,3.42,3.27,0,7.32-.47,10.43-3.42,3.11-2.96,5.45-8.1,5.45-17.44v-79.23h4.82v79.23c0,10.59-2.96,17.12-6.85,20.86-3.89,3.73-9.34,4.82-13.85,4.82-4.82,0-9.81-1.09-13.85-4.82-4.05-3.74-7-10.27-7-20.86v-79.23Z"/>
    <path class="st0" d="M477.91,992.57l-36.27-89.81v89.81h-4.98v-104.91h4.2l36.11,89.81v-89.81h4.98v104.91h-4.05Z"/>
    <path class="st0" d="M530.84,992.57h-4.82v-104.91h4.82v104.91Z"/>
    <path class="st0" d="M571.78,915.37c0-11.36,2.96-18.53,7.32-22.57,4.36-4.05,9.96-5.14,15.1-5.14s10.58,1.09,14.94,5.14c4.36,4.05,7.32,11.21,7.32,22.57v2.49h-4.98v-2.49c0-16.03-6.07-22.88-17.28-22.88s-17.43,6.85-17.43,22.88v49.34c0,16.03,5.76,23.04,17.43,23.04,5.6,0,9.96-1.87,12.92-5.45,2.96-3.89,4.36-9.65,4.36-17.59v-2.49h4.98v2.49c0,11.68-2.96,18.37-7.32,22.57-4.36,4.2-9.96,5.29-14.94,5.29s-10.74-1.09-15.1-5.29c-4.36-4.2-7.32-10.9-7.32-22.57v-49.34Z"/>
    <path class="st0" d="M693.52,937.78v-50.12h4.98v104.91h-4.98v-49.97h-31.75v49.97h-4.98v-104.91h4.98v50.12h31.75Z"/>
    <path class="st0" d="M779.14,887.66v4.82h-32.84v45.14h32.84v4.82h-32.84v45.29h32.84v4.83h-37.67v-104.91h37.67Z"/>
  </g>
  <g id="EL_REFUGIO">
    <path class="st0" d="M252.51,638.38s2.14,4.91,2.07,7.96c-.02.7-.4,1.27-.67,1.69l1.61.2-.8,3.22,1.61.6s-2.04,2.09-2.43,2.95c-.38.87-.69,2.71-.25,3.82.44,1.11.66,1.88.66,1.88l-1.61,2.61s-2.7,1.4-4.89.49c-2.19-.91-2.75-1.55-3.87-.59-1.12.96-6.57.15-9.45.12-2.88-.03-20.54.38-20.54.38,0,0-.2,15.16-.56,20.51s-1.25,17.09-1.25,17.09c0,0,4.48.02,7.72-.18,3.24-.2,16.11-1.04,19.43-.95,3.32.09,7.25.25,7.98.73s1,1.61,1,1.61c0,0-.3.93-.82,1.13s.32,3.28.46,4.42c.14,1.13.09,6.36-.09,7.91s.04,3.83.04,3.83l-1,1.61s.58,1.76.4,2.27c-.18.51-1.52.52-1.99.52-.47,0-7.18-.3-10.26-.17-3.08.13-17.23.97-18.47,1.04-1.25.07-3.81-.27-4.1.45s-.28,13.66-.3,16.27c-.03,2.62-.24,7.75-.25,8.82,0,1.07.05,3.16.05,3.16,0,0,35.05-.29,38.95-.61,3.9-.32,5.43.44,5.42,1.82,0,1.38.2,2.41.2,2.41l-.4,4.63,1.2,3.21-1.61,3.23-.6,2.21s.65,3.75.45,4.73c-.19.98-1.15,1.08-2.28,1.18-1.13.1-6.72.61-9.41.75-2.69.15-7.49.23-8.94,0-1.45-.23-4.22-.48-7.34-.42-3.12.06-22.41.36-23.67.43-1.26.07-4.75.34-5.58.7-.83.37-2.12.27-2.65-.53s-3.01-.2-3.01-.2l-1.41.2-1.2.4s-1.97-4.26-1.95-9.18c.02-4.92.33-10.31.46-13.03.13-2.72.18-8,.49-9.16s-.81-6.97-.95-8.22c-.14-1.25-.13-6.66-.14-10.43s-.1-17.05-.11-19.25c0-2.21.13-14.47.32-20.53.19-6.06.59-15.74.27-19.97-.32-4.23-1.37-17.45-1.75-19.85-.39-2.39.61-6.77,1.75-7.12,1.15-.35,4.02-1.45,5.34-1.47,1.32-.02,58.7-1.34,58.7-1.34Z"/>
    <path class="st0" d="M522.22,637.97s2.14,4.91,2.07,7.96c-.02.7-.4,1.27-.67,1.69l1.61.2-.8,3.22,1.61.6s-2.04,2.09-2.43,2.95-.69,2.71-.25,3.82.66,1.88.66,1.88l-1.61,2.61s-2.7,1.4-4.89.49c-2.19-.91-2.75-1.55-3.87-.59-1.12.96-6.57.15-9.45.12-2.88-.03-20.54.38-20.54.38,0,0-.2,15.16-.56,20.51-.35,5.35-1.25,17.09-1.25,17.09,0,0,4.48.02,7.72-.18,3.24-.2,16.11-1.04,19.43-.95,3.32.09,7.25.25,7.98.73s1,1.61,1,1.61c0,0-.3.93-.82,1.13-.51.2.32,3.28.46,4.42.14,1.13.09,6.36-.09,7.91-.18,1.54.04,3.83.04,3.83l-1,1.61s.58,1.76.4,2.27-1.52.52-1.99.52c-.47,0-7.18-.3-10.26-.17s-17.23.97-18.47,1.04-3.81-.27-4.1.45c-.29.72-.28,13.66-.3,16.27-.03,2.62-.24,7.75-.25,8.82,0,1.07.05,3.16.05,3.16,0,0,35.05-.29,38.95-.61,3.9-.32,5.43.44,5.42,1.82,0,1.38.2,2.41.2,2.41l-.4,4.63,1.2,3.21-1.61,3.23-.6,2.21s.65,3.75.45,4.73c-.19.98-1.15,1.08-2.28,1.18-1.13.1-6.72.61-9.41.75-2.69.15-7.49.23-8.94,0-1.45-.23-4.22-.48-7.34-.42-3.12.06-22.41.36-23.67.43s-4.75.34-5.58.7c-.83.37-2.12.27-2.65-.53s-3.01-.2-3.01-.2l-1.41.2-1.2.4s-1.97-4.26-1.95-9.18c.02-4.92.33-10.31.46-13.03.13-2.72.18-8,.49-9.16s-.81-6.97-.95-8.22-.13-6.66-.14-10.43c0-3.77-.1-17.05-.11-19.25,0-2.21.13-14.47.32-20.53.19-6.06.59-15.74.27-19.97s-1.37-17.45-1.75-19.85c-.39-2.39.61-6.77,1.75-7.12,1.15-.35,4.02-1.45,5.34-1.47,1.32-.02,58.7-1.34,58.7-1.34Z"/>
    <path class="st0" d="M268.93,639.43c.43-.8,10.56-.88,12.09-.35,1.59.55,3.1,1.17,3.94,1.16s.82,1.66,2.42,1.01,4.23-1.01,4.23-1.01c0,0,.68,3.55,1.08,4.53.41.98.55,2.31.12,4.72l-1.4-.2-.6,6.16s1.13,2.78,1.1,4.3c-.03,1.52-.36,7.51-.05,8.44.31.94,1.75,3.82,1.75,3.82l-.31,11.27-1.11,49.81s-1.15,20.65-.19,21.78c0,0,11.26-.36,13.08-.63,1.82-.27,6.93-1.11,9.17-.94,2.24.16,3.06.15,2.95.86s-.51,2.72-.51,2.72l.2,2.01.2,1.61s-.14.92-.2,1.21c.61.17,1.59.68,1.64,1.3s-.03,1.12-.03,1.12l.7,2.38s.23.88-.73,1.36c-.96.48-.31,1.17-.07,1.41s.58.79.3,1.69c.9.3,1.48.41,1.41,1.61-.55.27.6,1.61.6,1.61,0,0-1.33,1.11-3.61,1.55-2.28.44-5.75.76-8.84.87-3.09.11-22.54.04-24.83.2-2.29.16-2.71.22-4.58.19-1.87-.02-3.4-.09-4.14.3s-1.59-.19-2.39-.29c-.8-.1-2.05.52-2.05.52,0,0-.67-1.61-.92-5.19-.25-3.59-.84-12.85-.93-16.13-.09-3.28,0-22.08,0-22.08,0,0-.02-30.1.1-34.56s.13-34.12.08-35.99c-.05-1.86.33-13.72.33-16.04s-.36-7.07-.02-8.1Z"/>
    <path class="st0" d="M434.66,728.3c1.47-3.39,3.15-7.43,6.21-18.9,3.05-11.48,3.74-36.29,3.06-39.85-.68-3.57-3.9-14.93-7.38-19.78-3.48-4.85-10.88-8.81-11.63-9.27-.75-.45-1.49-.9-2.49-.29-.87-.54-11.5-1.91-17.11-2.15-5.61-.24-27.05,1.44-28.06,1.75-1.01.31-.72,7.09-1.16,9.65-.44,2.56.26,4.7.35,7.65.09,2.94-.62,6.21-.9,12.52-.27,6.32-.87,22.32-1.32,30.57-.45,8.24-.33,18.64-.21,26.35.12,7.71.48,19.34.73,26.89.24,7.55.77,23.16,1.65,23.15.89,0,3.67-1.63,3.67-1.63l3.61,2.01,1.61-2.41,2.81,1.61s2.9-2.15,4.33-1.34c1.44.81,3.96.94,5.7.93.56-1.03.6-20.13.6-22.32,0,0-.14-1.47.65-2,.73-.49,7.28-2.78,8.98-3.17,1.69-.39,4.36.53,4.36.53,0,0,.21.71.53,2.53.33,1.81-.45,7.78-1.04,12.95-.59,5.17.24,11.04.57,12.69.69-.8,5.24-.92,7.55-.33,2.32.59,8.1.33,8.1.33,0,0,3.73.48,4.41.29.68-.18,1.82.11,1.82.11,0,0,1.66-.94,1.42-2.66-.24-1.72.74-24.37.77-27.03.04-2.66-1.36-4.65-3.56-7.26-2.2-2.61-7.54-2.67-7.54-2.67,0,0,7.42-6.06,8.9-9.45ZM421.02,697.73c-1.48,7.66-3.04,13.3-3.93,15.27-.09-1.37-.09-1.6-.09-1.6,0,0-.66-.11-1.29,1.23-.64,1.34-1.44,3-2.49,4.34-.76,1-2.24,1.48-2.24,1.48,0,0-2.48,2.77-3.64,3.17-1.16.41-4.36,1.61-9,2.15v-.09s.73-33.64.51-41.01c-.22-7.37.09-21.93.09-21.93,0,0,10.43-1.19,12.45,0,2.02,1.19,6.46,3.14,7.83,7.66,1.37,4.52,1.41,11.64,1.41,11.64l1.2-2.41s.68,12.45-.8,20.11Z"/>
    <path class="st0" d="M561.85,728.11s-2.21,23.74-1.75,30.33,1.67,13.99,1.15,15.32c-1.63.48-10.1,1.46-12.05,2.82-1.88-.78-3.99-1.14-5.16,0-1.16,1.14-3.29,2.23-4.28,2.21-.99-.02-2.81-3.1-3.1-10.95s.08-23.24.24-29.48,1.29-36.83,1.51-43.14c.22-6.3,0-19.1.38-21.46.37-2.36.99-8.38.99-13.46s-.25-18.87.58-19.88c1.26-.06,3.93.26,6.1-.19,2.17-.45,3.33-1.74,5.95-2.02,2.62-.28,6.02-.8,6.02-.8,0,0,2.37,2.61,3.81,2.62s9.21,0,13.25-.4c4.04-.39,14.89-1.44,18.77-1.48,3.88-.04,7.33.07,7.33.07,0,0-.61,1.61-.32,2.19s.89,1.58.57,2.71c-.32,1.12.29,4.1.55,5.76.26,1.66-.05,3.67.4,4.63-.38.72-.05,3.49.6,4.42-.42,1.02-.4,2.82-.4,2.82,0,0-2.06,1.11-4.29,1.41-2.22.3-11.42.24-13.41.48-1.99.24-7.39.65-11.75.77-4.36.12-10.74.36-10.74.36,0,0-.15,5.08-.21,10.19-.06,5.11-.69,27.67-.57,28.83,1.42.21,6.8.98,11.25.92,4.45-.06,10.43-.71,10.43-.71v2.21s-.36,1.05,0,1.81c-.74.32-1.06,2.85-.22,3.46.83.61,1.03.76,1.03.76,0,0-.87,1.28-.16,2.35.71,1.07.96,1.47.96,1.47l.4,1.81s-1.36,2.68-.8,4.02c.56,1.34,2.26,3.87,2.61,4.02-.73.66-2.15,1.3-4.23,1.7-2.08.4-6.67.94-10.64.87-3.97-.07-10.83.64-10.83.64Z"/>
    <path class="st0" d="M615.09,638.25c.74-.89,8.65,1.02,11.98,1.3,3.33.28,5.7-.55,5.7-.55,0,0,2.38-.13,3.17.6s2.71,2.83,3.12,3.62c.41.79-.35,4.14-.65,5.74-.29,1.6-.86,4.84-.63,6.13.23,1.28-1.06,9.41-1.29,14.14s-.67,15.03-.99,21.89c-.32,6.87-1.25,19.12-1.27,21.08-.03,1.96-.63,5.82-.42,8.55.21,2.73-.05,10.56.11,13.29s1.51,12.41,1.45,13.36c-.59-.03-1.05-.35-.83,1.1.23,1.45.98,3.89,2.17,5.39s3.57,1.87,4.29,1.32,2.18-.26,3.8.38c1.62.65,5.18.68,7.77-1.93,2.59-2.61,5.12-4.56,6.27-11.66,1.15-7.1,1.96-12.33,2.33-16.14.37-3.81.81-9.67.63-14.66-.18-4.99-.54-13.09-.66-16.9-.12-3.81-.29-8.8-.37-15.04-.08-6.24-.16-16.85-.15-21.57.01-4.72,0-9.63-.07-13.68-.07-4.06.12-5.22.9-6.08.77-.86,1.31-.96,2.75,0s1.8.42,2.08.26,1.67-.95,2.21-1.01c.54-.05,5.42.2,6.42.61,1,.41,3.64.94,4.82.6,1.18-.33,2.59-.87,2.81-.6s1.13,1.12,1.36,4.73c.23,3.61,1.82,29.21,2.16,34.49.34,5.28,1.22,14.08.82,19.41-.4,5.33-1.83,30.64-2.93,32.48-.57,1.74-.38-2.98-1.2,2.99-.82,5.97-2.16,18.5-4.5,24.97-2.34,6.47-.83,5.65-3.58,8.97-2.75,3.32-6.1,7.41-8.87,8.99-2.77,1.58-5.46,1.48-6.75,2.51-1.28,1.03-5.46,3.61-11.84,3.03-6.39-.59-9.92-.91-11.24-1.38.31-.7,1.05-1.12-.78-1.75-1.83-.63-11.43-4.62-16.03-11.52-4.6-6.9-5.17-12.89-5.48-11.86-.31,1.03-.21,6.15-1.16-.14-.96-6.29-3.14-21.24-3.09-34.66s.11-36.92.95-49.77c.84-12.85,1.41-22.27,2.83-26.25,1.41-3.98,1.87-4.77,1.87-4.77Z"/>
    <path class="st0" d="M738.06,635.49c6.35,0,12.51,2.72,16.04,7.92-2.78.42-2.18,1.08-.57,2.87,2.08,2.32,7.11,7.85,7.89,8.22.78.37,1.88-2.12,1.66-3.02-.21-.9-1.11-2.72-.95-3.25,1.05.54,2.76,3.36,4.06,6.3,1.3,2.95,4.51,11.68,4.8,18.88.29,7.2-.11,10.43.34,11.65-.3,1.61-.97,4.39-.97,4.39,0,0-2.78.93-3.41,1.41s-2.46-1.44-3.21-1.54-3.2.45-4.13,1.05c-.93.6-2.21.7-4.7.09-.45-1.09-1.2-1.07-2.01-1.01s-2.41.2-2.41.2c0,0-1.23-.43-2.47.49-.35-.52-.54-.9-.54-.9,0,0-.67-4.47-.36-7.99.31-3.52.82-7.96-1.17-12.95-1.99-4.99-5.94-8.7-9.02-8.63-3.08.07-6.16,1.02-9.07,7.14-2.91,6.12-3.18,9.65-3.89,15.18-.71,5.53-1.71,10.74-2.03,16.88-.32,6.14-.98,10.28-.91,12.06s-.44,14.16,1.39,21.48c1.83,7.31,2.94,10.08,4.85,12.94s5.76,8.33,8.6,8.48c2.84.15,8.75-.79,10.07-5.32,1.33-4.53,1.95-9.19,1.35-9.4s-5.56-.03-7.43-.03-4.58-.45-4.58-.45c0,0,.4-1.21.34-2.64-.06-1.43.19-1.85.15-2.96-.05-1.1-.52-3.15-.52-3.15,0,0-.36-2.82-.74-3.24.47-1.31.42-2.2.3-2.99-.12-.79-.3-3.79-.89-4.09-.59-.3.06-3.6.06-3.6,0,0,6.53-.77,7.59-.66,1.07.11,5.54-.72,7.36-.58,1.82.15,5.15.19,7.02-.45,1.88-.65,2.17.2,3.83.04,1.66-.16,3.4-.57,4.69.08,1.28.65,4.12,1.29,5.12,1.19.76,1.09,2.07,4.94,2.05,8.21-.01,3.27-.42,4.19-.28,9.39s-.13,13.22-.53,16.49c-.4,3.27-1.65,3.72-1.65,3.72,0,0-1,.69-2.44,3.95-1.44,3.26-2.31,5.54-1.14,4.52l1.17-1.03s-.33,2.25-3.27,5.04c-2.94,2.79-3.65,4.15-8.65,7.08-5,2.93-10.81,4.82-17.19,4.71-6.38-.11-11.37-1.82-14.09-3.36-2.72-1.54-7.29-4.45-8.2-5.22.75-.5,1.1-.83,1.1-.83,0,0-1.67-2.09-3.94-5.14-2.27-3.05-8.6-12.93-8.6-12.93l-.4.8s-2.01-3.37-3.71-11.09c-1.7-7.72-3.29-20.02-3.5-25.92-.22-5.9,1.08-23.41,2.42-30.16,1.34-6.75,1.77-6.31,1.76-7.55-.01-1.24.28-2.16,1.53-5.06,1.26-2.89,3.1-8.31,3.1-8.31l-1.81.2s1.04-3.46,3.13-7.27,5.35-9.41,6.97-9.82c1.62-.42,3.75-1.88,4.55-3.22s1.4-1.87,2.93-1.82c1.52.04,2.52.01,3.19-.28.67-.29,2.26-1.93,2.92-2.25.65-.32,2.36-1.02,3.25-1.07.89-.05,4.22-.96,4.58-1.22.36-.27,1.13-.64,1.91-.66s1.32-.03,1.32-.03Z"/>
    <path class="st0" d="M787.96,641.1c2.63-.88,7.46.63,8.43-.2.97-.83,2.01-1.28,3.81-.6s5.58-.76,6.79.47c1.21,1.23,2.76,2.52,2.94,5.64.18,3.12.04,27.36-.21,36.01-.25,8.65-1.4,30.48-1.49,39.53-.09,9.05-.58,14.67-.33,22.06.25,7.4-.54,16.67-.4,21.44.13,4.77.59,9.57-.47,12.21-1.01-.66-2.21-.2-2.21-.2l-3.21-.4-1.81.6h-5s-.94-.62-2.14-.44c-1.2.18-3.65-.77-4.51-.36-.85.41-1.85.76-2.61.28-.77-.47-1.73-1.93-1.88-6.52-.15-4.59.08-18.27.19-23.49.11-5.22.78-24.83.75-30-.03-5.17,1.7-31.15,1.7-34s.09-11.99.18-18.45c.09-6.46.31-9.64.07-11.31-.24-1.67-.5-3.05.03-4.03.53-.97,1.74-1.22,1.56-2.51-.18-1.29-1.54-1.15-1.51-2.08s.73-3.45,1.33-3.65Z"/>
    <path class="st0" d="M891.14,669.61c-1.07-6.2-3.57-10.28-4.8-11.36.66-1.94-1.61-3.62-1.61-3.62,0,0-.73.81-2.01-.4-1.27-1.21-1.93-4.69-5.04-8.42s-8.86-6.25-15-7c-3.78-.46-12.89.54-15.75,1.95-2.87,1.41-7.53,4.5-11.39,6.91-3.86,2.41-8.76,5.68-8.83,10.04-.07,4.36-1,5.26-2.01,6.78-1.01,1.51-1.53,4.23-2.44,7.85-.91,3.62,1.08,9.88,1.64,13.07.56,3.19.12,21.79-.04,28.16-.17,6.37-1.17,13.06,0,29.11,1.17,16.05,4.22,21.05,7.17,25.36,2.95,4.31,12.93,10.65,17.64,10.82,4.72.17,15.08.9,19.55-.73,4.47-1.63,7.86-1.94,14.51-10.26,6.65-8.32,9.08-25.78,9.97-34.29.89-8.51-.15-22.45.52-33.24.67-10.78-1.01-24.52-2.07-30.71ZM869.46,743.91c-1.82,6.42-3.41,3.77-5.21,6.36-1.8,2.58-10.57,4.37-13.02,3.48-2.44-.88-2.43-8.99-2.84-15.07,0,0-.18-7.45-.14-9.95.04-2.5.04-10.34-.26-13.59-.31-3.25-1.02-7.29-.83-8.01.19-.72.19-8.16.21-11.95.02-3.79-.41-11.9,0-15.69.41-3.79,1.78-6.68,1.78-6.68,0,0-.95-1.88.12-2.74,1.06-.87-.04-.96,2.48-3.54,2.52-2.58,9.41-.71,12.16.16,2.75.88,3.4,4.89,3.73,7.31.33,2.42.67,14.94.89,17.16.22,2.23.43,2.21.61.77.18-1.44.25.08,1,5.74.75,5.67,1.62,20.89,1.82,26.47.2,5.59-.68,13.34-2.5,19.76Z"/>
  </g>
</svg>