<svg version="1.1" id="Layer_1" xmlns="http://www.w3.org/2000/svg" xmlns:xlink="http://www.w3.org/1999/xlink" x="0px" y="0px"
	 width="100%" viewBox="0 0 1024 1024" enable-background="new 0 0 1024 1024" xml:space="preserve">

<path fill="none" opacity="1.000000" stroke="currentColor" 
	d="
M599.661011,452.083008 
	C602.767456,458.173492 607.311401,460.895782 613.910889,460.808807 
	C629.568604,460.602448 645.230530,460.673187 660.890625,460.706268 
	C670.228088,460.726013 672.297974,462.874268 672.302917,472.211151 
	C672.307251,480.374451 672.360291,488.538269 672.287170,496.700928 
	C672.141724,512.948059 661.166626,525.135681 645.103394,527.372009 
	C632.650330,529.105591 620.162964,527.945801 607.695618,528.257568 
	C600.161743,528.445984 598.409119,530.112793 598.412781,537.789185 
	C598.417358,547.272461 598.613831,556.760620 598.375732,566.237854 
	C597.957214,582.896301 587.473999,594.776733 570.813477,597.234253 
	C556.748047,599.309021 542.549377,598.267822 528.420776,597.961182 
	C521.750122,597.816528 519.887207,594.668091 519.887085,586.502625 
	C519.886658,564.678772 519.887939,542.854919 519.893433,521.031067 
	C519.906189,470.385864 519.917236,419.740692 519.940063,369.095490 
	C519.944458,359.403076 522.157288,357.068146 532.034973,357.012909 
	C549.859924,356.913239 567.686462,356.925232 585.511353,357.042145 
	C595.610535,357.108368 598.133606,359.725800 598.170410,369.918884 
	C598.258972,394.408447 598.270081,418.898285 598.278625,443.388031 
	C598.279602,446.241882 598.442322,449.041382 599.661011,452.083008 
z"/>
<path fill="none" opacity="1.000000" stroke="currentColor" 
	d="
M366.090515,561.388184 
	C343.550537,561.089783 325.334747,544.205811 323.639862,522.414734 
	C322.348633,505.813751 322.049347,489.169647 321.631439,472.532043 
	C321.432922,464.625885 321.355347,464.415131 313.499023,464.411896 
	C304.581848,464.408234 298.286438,459.606293 293.534912,452.914978 
	C284.402374,440.054016 284.337769,426.316711 292.243103,413.006592 
	C301.252960,397.836761 310.826172,382.986023 320.605103,368.296570 
	C324.199463,362.897217 325.535492,357.507965 325.810608,351.096924 
	C328.694366,283.897034 361.058380,236.026611 421.680542,207.477890 
	C438.363495,199.621399 456.455444,196.472107 475.027710,196.637955 
	C493.963684,196.807068 503.230652,205.807602 503.304504,224.926376 
	C503.440308,260.079620 503.371979,295.233643 503.372772,330.387360 
	C503.373749,373.371552 503.446350,416.355957 503.324738,459.339844 
	C503.206787,501.033691 477.430237,538.773376 438.545929,554.060242 
	C434.339661,555.713745 433.102417,557.859680 433.243042,562.125061 
	C433.539307,571.112061 433.384277,580.115906 433.317383,589.112183 
	C433.270325,595.444580 430.356506,598.548462 424.416351,598.852722 
	C418.325134,599.164673 414.930878,596.547974 414.566620,590.323608 
	C414.159637,583.368530 414.338379,576.373840 414.421539,569.398315 
	C414.453400,566.724243 414.591553,564.094849 413.453217,561.390869 
	C397.833344,561.390869 382.204895,561.390869 366.090515,561.388184 
M357.995575,297.444977 
	C349.904083,316.004242 345.580872,335.333832 346.385712,355.648132 
	C346.654297,362.426361 344.751465,368.335052 341.042358,373.973511 
	C332.986755,386.219421 325.158508,398.615875 317.321198,411.003876 
	C314.295349,415.786591 311.176880,420.554321 308.666473,425.609894 
	C304.352539,434.297424 310.369171,445.368805 320.890259,444.374817 
	C333.437927,443.189362 340.807098,451.275391 341.326355,464.783264 
	C341.997620,482.244843 342.649597,499.707275 343.372009,517.166748 
	C343.870239,529.208374 353.439301,540.291565 364.706421,540.487976 
	C380.501312,540.763245 396.333954,541.650085 412.121582,539.786621 
	C451.569702,535.130554 483.192963,504.142883 483.457733,460.445648 
	C483.931152,382.310150 483.263794,304.167664 483.049957,226.028183 
	C483.029083,218.400803 481.700439,217.104248 474.045349,216.941147 
	C458.646881,216.613037 443.929993,219.882080 429.878754,225.958221 
	C396.851898,240.239929 373.817352,264.724091 357.995575,297.444977 
z"/>
<path fill="none" opacity="1.000000" stroke="currentColor" 
	d="
M519.914246,270.000000 
	C519.942078,248.838135 519.929626,228.176086 520.017090,207.514465 
	C520.053894,198.825058 522.310547,196.555176 531.086487,196.722397 
	C543.720520,196.963074 556.349548,196.104141 568.995850,197.581329 
	C591.219421,200.177231 608.197449,218.553940 608.313232,240.820358 
	C608.330566,244.152893 608.310303,247.485687 608.337463,250.818115 
	C608.387390,256.954437 609.383545,257.932068 615.695984,258.070496 
	C627.683777,258.333374 639.678406,257.623108 651.665527,258.609619 
	C666.769165,259.852661 680.094543,273.651398 680.297058,288.912384 
	C680.491577,303.573303 680.391663,318.238983 680.322388,332.902100 
	C680.294250,338.860382 677.783020,341.326691 671.713135,341.331696 
	C624.056824,341.370880 576.400513,341.375122 528.744202,341.341980 
	C522.288330,341.337494 519.965759,338.845306 519.947327,331.986023 
	C519.892273,311.490814 519.919373,290.995361 519.914246,270.000000 
z"/>
<path fill="none" opacity="1.000000" stroke="currentColor" 
	d="
M708.270142,407.978027 
	C708.478027,413.479065 708.022339,418.438263 707.286316,423.383698 
	C705.395020,436.091034 696.979919,443.592834 683.217163,444.282074 
	C662.759216,445.306488 642.291687,445.355225 621.815979,444.495331 
	C617.076782,444.296295 614.762573,442.142761 614.148376,437.736908 
	C613.896790,435.931946 613.775879,434.094238 613.773682,432.271210 
	C613.748901,411.952057 613.741394,391.632874 613.784424,371.313782 
	C613.789307,368.997864 614.042847,366.671478 614.335266,364.369537 
	C614.866333,360.188721 617.208069,357.761841 621.494263,357.379944 
	C623.478333,357.203156 625.462646,356.893585 627.447754,356.885620 
	C644.102600,356.818787 660.757751,356.837189 677.412476,356.759277 
	C681.438232,356.740448 685.416138,357.239441 689.264221,358.191895 
	C701.584717,361.241425 707.998657,369.858368 708.233826,383.499268 
	C708.371643,391.491455 708.265625,399.487854 708.270142,407.978027 
z"/>

</svg>